<?xml version="1.0" encoding="utf-8"?>
<!-- Svg Vector Icons : http://www.onlinewebfonts.com/icon -->
<!DOCTYPE svg PUBLIC "-//W3C//DTD SVG 1.1//EN" "http://www.w3.org/Graphics/SVG/1.1/DTD/svg11.dtd">
<svg version="1.1" xmlns="http://www.w3.org/2000/svg" xmlns:xlink="http://www.w3.org/1999/xlink" x="0px" y="0px" viewBox="0 0 256 256" enable-background="new 0 0 256 256" xml:space="preserve">
<metadata> Svg Vector Icons : http://www.onlinewebfonts.com/icon </metadata>
<g><g><g><path fill="#000000" d="M117.8,11c-14,2.2-28.4,10.3-37.6,20.9c-22.1,25.6-20.8,62.9,3,86.6c19.3,19.3,47.9,24.1,72.3,12.3c39.5-19.2,48.2-70.9,17.3-101.9C158.3,14.3,138.2,7.8,117.8,11z M138.8,29.6c11.7,3.2,20.9,9.8,27.3,19.6c5,7.6,7,14.6,7,24.5c0,12.8-4.3,23.1-13.1,32c-8.8,8.9-19.2,13.1-32,13.1s-23.1-4.3-32-13.1C83.6,93.3,79.6,75.9,85.2,58.8c5-15.2,18.4-26.7,35.1-30C124.2,28.1,134.9,28.5,138.8,29.6z"/><path fill="#000000" d="M68.3,135.7c-6.7,2.4-20.8,13.9-29.7,24.3c-7,8.2-11.4,14.9-16.4,25.1c-6.6,13.3-10.1,25.7-11.7,41c-1.2,11.8-0.5,15.5,3.7,18.6l1.5,1.2H128h112.3l1.5-1.2c4.1-3.1,4.8-6.4,3.7-18.2c-1.5-14.8-4.9-27.5-11.2-40.4c-9.4-19.5-23.5-35.8-41-47.3c-7.5-4.9-9.4-4.8-17.8,1.1c-9.5,6.8-19.9,11.4-31.1,13.8c-7.9,1.7-23.7,1.9-31.4,0.3c-10.9-2.2-21-6.4-29.6-12.1C72.7,134.7,72,134.4,68.3,135.7z M74.5,157.8c8.3,5.3,19.2,10,28.8,12.4c9.9,2.5,13.7,3,24.7,3c11,0,14.8-0.5,24.7-3c9.7-2.4,20.5-7.1,28.9-12.5l3.9-2.5l4.2,3.2c6.4,4.9,16.6,15.9,21.2,22.8c8.6,12.9,14.6,28.9,16.2,43.2l0.4,3.6H128H28.6l0.4-3.6c2.2-19.9,12-40.5,26.3-55.5c4.7-5,14.4-13.6,15.3-13.6C70.6,155.3,72.4,156.5,74.5,157.8z"/></g></g></g>
</svg>