<?xml version="1.0" encoding="utf-8"?>
<!-- Svg Vector Icons : http://www.onlinewebfonts.com/icon -->
<!DOCTYPE svg PUBLIC "-//W3C//DTD SVG 1.1//EN" "http://www.w3.org/Graphics/SVG/1.1/DTD/svg11.dtd">
<svg version="1.1" xmlns="http://www.w3.org/2000/svg" xmlns:xlink="http://www.w3.org/1999/xlink" x="0px" y="0px" viewBox="0 0 256 256" enable-background="new 0 0 256 256" xml:space="preserve">
<metadata> Svg Vector Icons : http://www.onlinewebfonts.com/icon </metadata>
<g><g><path fill="#000000" d="M164.9,92.9c0-20.6-16.7-37.3-37.3-37.3c-20.6,0-37.3,16.7-37.3,37.3s16.7,37.3,37.3,37.3C148.2,130.2,164.9,113.5,164.9,92.9z"/><path fill="#000000" d="M236.7,82.1c-5.9-14.1-14.4-26.7-25.3-37.5c-10.8-10.8-23.4-19.3-37.5-25.3c-14.6-6.1-30-9.3-45.9-9.3s-31.4,3.1-45.9,9.3C68,25.2,55.4,33.7,44.6,44.6C33.7,55.4,25.2,68,19.3,82.1c-6.1,14.6-9.3,30-9.3,45.9s3.1,31.4,9.3,45.9c5.9,14.1,14.4,26.7,25.3,37.5c10.8,10.8,23.4,19.3,37.5,25.3c14.6,6.1,30,9.3,45.9,9.3s31.4-3.1,45.9-9.3c14.1-5.9,26.7-14.4,37.5-25.3c10.8-10.8,19.3-23.4,25.3-37.5c6.1-14.6,9.3-30,9.3-45.9S242.9,96.6,236.7,82.1z M197.8,209.7c-0.6-4.4-3.1-19-11.2-33.4c-12.5-22.3-32.2-33.6-58.4-33.6c-26.3,0-46,11.6-58.6,34.6c-7.4,13.5-10.1,27-10.9,32.6c-3.2-2.7-6.2-5.6-9.1-8.6c1.7-7.5,4.9-18.2,10.8-29c6.3-11.6,14.5-20.8,24.3-27.5c6.3-4.3,13.2-7.5,20.8-9.6c-15.1-8-25.5-24-25.5-42.3c0-26.4,21.4-47.8,47.8-47.8s47.8,21.5,47.8,47.8c0,18.2-10.2,34-25.1,42.1c7.7,2,14.8,5.2,21.2,9.5c9.8,6.5,17.9,15.6,24.3,26.9c6.2,11.1,9.4,22.1,11,29.5C204,204,201,206.9,197.8,209.7z"/></g></g>
</svg>